<svg viewBox="0 0 4167 4167" xmlns="http://www.w3.org/2000/svg" xml:space="preserve" style="fill-rule:evenodd;clip-rule:evenodd;stroke-linejoin:round;stroke-miterlimit:2"><path d="M140.175 342.984h-25.707a2.514 2.514 0 0 1-2.334-3.447c.159-.401 15.959-40.383 15.189-72.352-.447-18.522-4.552-36.382-4.592-36.56a2.51 2.51 0 0 1 .715-2.392l14.995-14.27a2.514 2.514 0 1 1 3.467 3.643L127.941 230.9c.997 4.653 4.019 19.96 4.411 36.164.669 27.809-10.347 60.328-14.237 70.89h22.06a2.514 2.514 0 1 1 0 5.03Z" style="fill:#e26b26;fill-rule:nonzero" transform="matrix(4.16668 0 0 4.16667 1331.533 670.955)"/><path d="M165.882 342.984h-25.707a2.516 2.516 0 0 1 0-5.03h22.059c-3.889-10.562-14.905-43.081-14.235-70.89.389-16.204 3.412-31.511 4.407-36.164l-13.965-13.294a2.515 2.515 0 0 1 3.467-3.643l14.995 14.27c.645.615.918 1.523.717 2.392-.043.177-4.148 18.059-4.594 36.56-.769 31.991 15.032 71.951 15.19 72.351a2.513 2.513 0 0 1-.254 2.343 2.513 2.513 0 0 1-2.08 1.105Z" style="fill:#e26b26;fill-rule:nonzero" transform="matrix(4.16668 0 0 4.16667 1331.533 670.955)"/><path d="M118.657 342.984a2.516 2.516 0 0 1-2.051-3.967l33.131-46.819-21.99-39.641a2.512 2.512 0 0 1 .577-3.142l25.226-21.282a2.514 2.514 0 1 1 3.241 3.846l-23.644 19.946 21.754 39.215a2.522 2.522 0 0 1-.146 2.673l-34.043 48.108a2.508 2.508 0 0 1-2.055 1.063Z" style="fill:#e26b26;fill-rule:nonzero" transform="matrix(4.16668 0 0 4.16667 1331.533 670.955)"/><path d="M161.983 342.984c-.787 0-1.564-.37-2.054-1.063l-34.04-48.108a2.511 2.511 0 0 1-.148-2.673l21.754-39.215-23.644-19.946a2.515 2.515 0 1 1 3.242-3.846l25.224 21.282a2.515 2.515 0 0 1 .579 3.142l-21.991 39.641 33.129 46.819a2.512 2.512 0 0 1-2.051 3.967Z" style="fill:#e26b26;fill-rule:nonzero" transform="matrix(4.16668 0 0 4.16667 1331.533 670.955)"/><path d="M139.811 357.419h-37.636a2.515 2.515 0 0 1-2.515-2.552c.074-4.964 3.054-14.88 13.791-16.871a2.51 2.51 0 0 1 .458-.042h25.902a2.515 2.515 0 0 1 0 5.03h-25.662c-6.346 1.28-8.436 6.286-9.125 9.405h34.787a2.515 2.515 0 0 1 0 5.03Z" style="fill:#079a93;fill-rule:nonzero" transform="matrix(4.16668 0 0 4.16667 1331.533 670.955)"/><path d="M177.811 357.419h-37.636a2.514 2.514 0 1 1 0-5.03h34.767c-.707-3.121-2.814-8.136-9.106-9.405h-25.661a2.516 2.516 0 0 1 0-5.03h25.9c.155 0 .307.014.46.042 10.736 1.991 13.715 11.907 13.79 16.871a2.512 2.512 0 0 1-2.514 2.552Z" style="fill:#079a93;fill-rule:nonzero" transform="matrix(4.16668 0 0 4.16667 1331.533 670.955)"/><path d="M226.479 299.256h-3.771a2.515 2.515 0 0 1-2.516-2.515v-18.614a2.515 2.515 0 0 1 2.516-2.515h3.771a2.514 2.514 0 0 1 2.515 2.515v18.614a2.514 2.514 0 0 1-2.515 2.515Z" style="fill:#e26b26;fill-rule:nonzero" transform="matrix(4.16668 0 0 4.16667 1331.533 670.955)"/><path d="M224.974 283.978c-3.982 0-7.127-1.831-7.325-1.949a1.397 1.397 0 0 1 1.427-2.404c.248.148 5.923 3.401 10.945.042a1.4 1.4 0 0 1 1.938.384 1.4 1.4 0 0 1-.384 1.939c-2.229 1.491-4.528 1.988-6.601 1.988ZM224.974 289.003c-3.982 0-7.127-1.831-7.325-1.948a1.396 1.396 0 1 1 1.427-2.401c.248.145 5.923 3.401 10.945.04a1.395 1.395 0 0 1 1.938.384c.428.64.257 1.508-.384 1.938-2.229 1.49-4.528 1.987-6.601 1.987ZM224.974 293.986c-3.982 0-7.127-1.829-7.325-1.947a1.397 1.397 0 0 1 1.427-2.404c.248.148 5.923 3.402 10.945.041a1.398 1.398 0 0 1 1.554 2.323c-2.229 1.492-4.528 1.987-6.601 1.987ZM206.675 299.256h-3.772a2.514 2.514 0 0 1-2.514-2.515v-18.614a2.514 2.514 0 0 1 2.514-2.515h3.772a2.515 2.515 0 0 1 2.515 2.515v18.614a2.515 2.515 0 0 1-2.515 2.515Z" style="fill:#e26b26;fill-rule:nonzero" transform="matrix(4.16668 0 0 4.16667 1331.533 670.955)"/><path d="M205.169 283.978c-3.982 0-7.127-1.831-7.324-1.949a1.397 1.397 0 0 1 1.426-2.404c.249.148 5.923 3.401 10.945.042a1.4 1.4 0 0 1 1.938.384 1.4 1.4 0 0 1-.383 1.939c-2.229 1.491-4.529 1.988-6.602 1.988ZM205.169 289.003c-3.982 0-7.127-1.831-7.324-1.948a1.396 1.396 0 1 1 1.426-2.401c.249.145 5.923 3.401 10.945.04a1.398 1.398 0 0 1 1.555 2.322c-2.229 1.49-4.529 1.987-6.602 1.987ZM205.169 293.986c-3.982 0-7.127-1.829-7.324-1.947a1.398 1.398 0 0 1 1.426-2.404c.249.148 5.923 3.402 10.945.041a1.398 1.398 0 0 1 1.555 2.323c-2.229 1.492-4.529 1.987-6.602 1.987ZM245.933 299.256h-3.774a2.513 2.513 0 0 1-2.513-2.515v-18.614a2.513 2.513 0 0 1 2.513-2.515h3.774a2.513 2.513 0 0 1 2.514 2.515v18.614a2.513 2.513 0 0 1-2.514 2.515Z" style="fill:#e26b26;fill-rule:nonzero" transform="matrix(4.16668 0 0 4.16667 1331.533 670.955)"/><path d="M244.427 283.978c-3.984 0-7.129-1.831-7.324-1.949a1.398 1.398 0 0 1 1.425-2.404c.25.148 5.924 3.401 10.944.042a1.397 1.397 0 1 1 1.554 2.323c-2.228 1.491-4.527 1.988-6.599 1.988ZM244.427 289.003c-3.984 0-7.129-1.831-7.324-1.948a1.397 1.397 0 0 1 1.425-2.401c.25.145 5.924 3.401 10.944.04a1.396 1.396 0 1 1 1.554 2.322c-2.228 1.49-4.527 1.987-6.599 1.987ZM244.427 293.986c-3.984 0-7.129-1.829-7.324-1.947a1.398 1.398 0 0 1 1.425-2.404c.25.148 5.924 3.402 10.944.041a1.4 1.4 0 0 1 1.939.385 1.396 1.396 0 0 1-.385 1.938c-2.228 1.492-4.527 1.987-6.599 1.987ZM140.175 199.563a6.3 6.3 0 0 0-6.295 6.294 6.302 6.302 0 0 0 6.295 6.297 6.302 6.302 0 0 0 6.294-6.297 6.301 6.301 0 0 0-6.294-6.294Zm0 17.619c-6.244 0-11.323-5.08-11.323-11.325 0-6.242 5.079-11.323 11.323-11.323 6.243 0 11.324 5.081 11.324 11.323 0 6.245-5.081 11.325-11.324 11.325Z" style="fill:#e26b26;fill-rule:nonzero" transform="matrix(4.16668 0 0 4.16667 1331.533 670.955)"/><path d="M204.79 278.394a2.515 2.515 0 0 1-2.516-2.516v-17.457c-7.966-3.634-43.619-21.205-55.606-49.553a2.515 2.515 0 0 1 4.632-1.959c12.443 29.424 54.053 47.383 54.472 47.562a2.517 2.517 0 0 1 1.532 2.315v19.092a2.514 2.514 0 0 1-2.514 2.516Z" style="fill:#e26b26;fill-rule:nonzero" transform="matrix(4.16668 0 0 4.16667 1331.533 670.955)"/><path d="M280.217 342.378c0 5.577-4.536 10.113-10.113 10.113H93.395c-5.576 0-10.112-4.536-10.112-10.113V189.625c0-5.577 4.536-10.113 10.112-10.113h176.709c5.577 0 10.113 4.536 10.113 10.113v152.753Zm4.901-152.753c0-8.279-6.735-15.013-15.014-15.013H93.395c-8.278 0-15.013 6.734-15.013 15.013v152.753c0 8.279 6.735 15.013 15.013 15.013h176.709c8.279 0 15.014-6.734 15.014-15.013V189.625Z" style="fill:#079a93;fill-rule:nonzero" transform="matrix(4.16668 0 0 4.16667 1331.533 670.955)"/><path d="M190.841 352.389h67.246v-52.314h-67.246v52.314Zm69.76 5.03h-72.274a2.514 2.514 0 0 1-2.515-2.514v-57.346a2.516 2.516 0 0 1 2.515-2.516h72.274a2.516 2.516 0 0 1 2.515 2.516v57.346a2.515 2.515 0 0 1-2.515 2.514Z" style="fill:#079a93;fill-rule:nonzero" transform="matrix(4.16668 0 0 4.16667 1331.533 670.955)"/><path d="M212.356 357.419a2.515 2.515 0 0 1-2.515-2.514v-55.824a2.516 2.516 0 0 1 5.031 0v55.824a2.515 2.515 0 0 1-2.516 2.514ZM236.759 357.419a2.515 2.515 0 0 1-2.516-2.514v-55.824a2.516 2.516 0 1 1 5.03 0v55.824a2.514 2.514 0 0 1-2.514 2.514Z" style="fill:#079a93;fill-rule:nonzero" transform="matrix(4.16668 0 0 4.16667 1331.533 670.955)"/><g><path d="M147.129 2391.14c0 .1-.048.18-.143.24-.096.05-.369.1-.82.15-.451.06-1.037.08-1.758.08-1.194 0-2.138-.38-2.833-1.15-.694-.77-1.042-1.89-1.042-3.37v-2.04c0-1.49.345-2.62 1.035-3.39.69-.76 1.637-1.15 2.84-1.15.477 0 1.018.04 1.622.12.604.07.933.13.988.16.055.03.082.08.082.15v.75c0 .1-.057.16-.171.16h-.043a30.71 30.71 0 0 0-2.464-.13c-1.704 0-2.557 1.11-2.557 3.33v2.04c0 1.1.219 1.92.656 2.48.436.56 1.07.84 1.901.84.368 0 .771-.01 1.21-.03l1.211-.08h.057c.153 0 .229.08.229.23v.61ZM157.025 2387.01c0 1.5-.344 2.64-1.031 3.43-.688.78-1.664 1.17-2.929 1.17-1.266 0-2.244-.39-2.937-1.17-.692-.79-1.038-1.93-1.038-3.43v-1.89c0-1.56.358-2.71 1.074-3.47.716-.76 1.683-1.14 2.901-1.14 1.265 0 2.241.4 2.929 1.18.687.79 1.031 1.93 1.031 3.43v1.89Zm-1.353 0v-1.89c0-2.27-.869-3.4-2.607-3.4-1.753 0-2.629 1.13-2.629 3.4v1.89c0 2.27.876 3.4 2.629 3.4 1.738 0 2.607-1.13 2.607-3.4ZM169.406 2391.22c0 .08-.029.15-.086.21a.266.266 0 0 1-.207.08h-.717a.266.266 0 0 1-.207-.08.292.292 0 0 1-.086-.21v-8.69c0-.04-.005-.05-.015-.05-.014 0-.026.01-.035.03l-1.368 2.83c-.502 1.04-.775 1.6-.82 1.67a.513.513 0 0 1-.201.19.748.748 0 0 1-.369.08h-.673a.724.724 0 0 1-.387-.09c-.095-.05-.186-.17-.272-.34l-1.325-2.74c-.515-1.07-.774-1.61-.777-1.62-.002 0-.004-.01-.007-.01h-.018c-.009 0-.014.01-.014.05v8.69c0 .08-.029.15-.086.21a.268.268 0 0 1-.208.08h-.716a.27.27 0 0 1-.208-.08.295.295 0 0 1-.085-.21v-10.18c0-.11.041-.22.125-.3a.423.423 0 0 1 .297-.13h.953c.234 0 .391.09.472.26l2.421 5.03c.048.11.105.16.172.16.067 0 .126-.05.179-.16l2.42-5.03c.077-.17.232-.26.466-.26h.952a.434.434 0 0 1 .43.43v10.18ZM182.038 2391.22c0 .08-.029.15-.086.21a.268.268 0 0 1-.208.08h-.716a.27.27 0 0 1-.208-.08.296.296 0 0 1-.086-.21v-8.69c0-.04-.004-.05-.014-.05-.014 0-.026.01-.036.03l-1.368 2.83c-.501 1.04-.774 1.6-.82 1.67a.503.503 0 0 1-.2.19.748.748 0 0 1-.369.08h-.673a.724.724 0 0 1-.387-.09c-.095-.05-.186-.17-.272-.34l-1.325-2.74c-.516-1.07-.775-1.61-.777-1.62-.002 0-.005-.01-.007-.01h-.018c-.01 0-.014.01-.014.05v8.69c0 .08-.029.15-.086.21a.27.27 0 0 1-.208.08h-.716a.268.268 0 0 1-.208-.08.296.296 0 0 1-.086-.21v-10.18c0-.11.042-.22.126-.3a.423.423 0 0 1 .297-.13h.952c.234 0 .392.09.473.26l2.421 5.03c.047.11.105.16.171.16.067 0 .127-.05.18-.16l2.42-5.03c.077-.17.232-.26.466-.26h.952a.434.434 0 0 1 .43.43v10.18ZM193.452 2387.01c0 1.5-.344 2.64-1.031 3.43-.688.78-1.664 1.17-2.929 1.17-1.266 0-2.244-.39-2.937-1.17-.692-.79-1.038-1.93-1.038-3.43v-1.89c0-1.56.358-2.71 1.074-3.47.716-.76 1.683-1.14 2.901-1.14 1.265 0 2.241.4 2.929 1.18.687.79 1.031 1.93 1.031 3.43v1.89Zm-1.353 0v-1.89c0-2.27-.869-3.4-2.607-3.4-1.753 0-2.629 1.13-2.629 3.4v1.89c0 2.27.876 3.4 2.629 3.4 1.738 0 2.607-1.13 2.607-3.4ZM204.63 2391.09a.416.416 0 0 1-.423.42h-.909c-.234 0-.392-.08-.473-.23l-4.533-8.61c-.014-.03-.029-.04-.043-.04-.01 0-.014.01-.014.04v8.57c0 .07-.027.14-.079.19a.231.231 0 0 1-.186.08h-.759c-.177 0-.265-.06-.265-.17v-10.31c0-.12.04-.21.121-.29a.421.421 0 0 1 .301-.13h.809c.196 0 .33.02.401.07a.52.52 0 0 1 .201.23l4.533 8.61c.01 0 .015-.02.015-.05v-8.58c0-.07.025-.13.075-.19a.23.23 0 0 1 .182-.09h.781c.177 0 .265.1.265.28v10.2ZM219.609 2391.34c0 .07-.024.12-.071.16-.048.04-.36.07-.935.09-.575.02-1.242.02-2.002.02-1.079 0-1.869-.22-2.37-.66-.501-.44-.752-1.13-.752-2.06v-5.65c0-.95.258-1.65.773-2.08.516-.43 1.299-.65 2.349-.65.096 0 .592.01 1.49.02s1.375.05 1.432.09c.058.06.086.12.086.19v.73c0 .12-.055.18-.164.18h-2.829c-.64 0-1.101.08-1.382.24-.282.17-.423.59-.423 1.28v2.04h4.505c.081 0 .15.03.207.09.058.06.086.13.086.21v.55c0 .08-.028.15-.086.21a.307.307 0 0 1-.207.08h-4.505v2.47c0 .58.115.98.344 1.2.229.21.716.32 1.461.32h2.829c.109 0 .164.06.164.18v.75ZM230.708 2391.09c0 .12-.041.21-.125.3a.413.413 0 0 1-.297.12h-.91c-.234 0-.391-.08-.472-.23l-4.534-8.61c-.014-.03-.028-.04-.043-.04-.009 0-.014.01-.014.04v8.57a.26.26 0 0 1-.079.19.229.229 0 0 1-.186.08h-.759c-.177 0-.265-.06-.265-.17v-10.31c0-.12.041-.21.122-.29a.42.42 0 0 1 .301-.13h.809c.196 0 .329.02.401.07.071.04.138.11.2.23l4.534 8.61c.009 0 .014-.02.014-.05v-8.58c0-.07.025-.13.075-.19a.23.23 0 0 1 .183-.09h.78c.177 0 .265.1.265.28v10.2ZM240.597 2391.34c0 .07-.024.12-.071.16-.048.04-.36.07-.935.09-.575.02-1.242.02-2.002.02-1.079 0-1.869-.22-2.37-.66-.501-.44-.752-1.13-.752-2.06v-5.65c0-.95.258-1.65.773-2.08.516-.43 1.299-.65 2.349-.65.096 0 .592.01 1.49.02s1.375.05 1.432.09c.058.06.086.12.086.19v.73c0 .12-.055.18-.164.18h-2.829c-.64 0-1.101.08-1.382.24-.282.17-.423.59-.423 1.28v2.04h4.505c.081 0 .15.03.207.09.058.06.086.13.086.21v.55c0 .08-.028.15-.086.21a.307.307 0 0 1-.207.08h-4.505v2.47c0 .58.115.98.344 1.2.229.21.716.32 1.461.32h2.829c.109 0 .164.06.164.18v.75ZM248.746 2386.73l2.671 4.46c.029.05.043.09.043.13 0 .13-.062.19-.186.19h-.945c-.082 0-.144 0-.187-.01a.186.186 0 0 1-.111-.07c-.031-.03-.225-.35-.583-.94l-2.12-3.54h-.387c-.315 0-.852-.01-1.611-.04v4.31c0 .08-.025.15-.075.21a.264.264 0 0 1-.19.08h-.788c-.076 0-.14-.02-.19-.08a.318.318 0 0 1-.075-.21v-10.27c0-.16.06-.25.179-.29.119-.04.479-.07 1.078-.1.599-.03 1.156-.05 1.672-.05 2.741 0 4.111 1.05 4.111 3.15v.11c0 .75-.199 1.38-.598 1.9-.399.51-.968.86-1.708 1.06Zm.981-2.96v-.11c0-.71-.226-1.21-.677-1.5-.451-.3-1.154-.44-2.109-.44-.85 0-1.387.01-1.611.04v4.02c.85.02 1.387.03 1.611.03 1.017 0 1.736-.16 2.156-.48.42-.32.63-.84.63-1.56ZM260.833 2391.08c0 .11-.038.19-.114.25-.077.06-.41.12-.999.18-.59.07-1.281.1-2.074.1-1.117 0-2.029-.39-2.735-1.18-.707-.79-1.06-1.92-1.06-3.38v-1.96c0-1.5.352-2.64 1.056-3.41.704-.78 1.663-1.17 2.875-1.17.798 0 1.47.04 2.016.1.547.07.854.12.921.15.067.04.1.1.1.18v.73c0 .1-.065.15-.193.15h-.058a32.79 32.79 0 0 0-2.786-.1c-1.733 0-2.599 1.12-2.599 3.37v1.96c0 1.15.226 2 .68 2.55.454.55 1.048.83 1.783.83.535 0 1.151-.03 1.848-.09v-4.2c0-.19.088-.29.265-.29h.795a.26.26 0 0 1 .193.09c.058.06.086.13.086.2v4.94ZM266.676 2387.05c-.296-.11-.561-.43-.795-.96l-2.256-5.1a.402.402 0 0 1-.043-.17c0-.14.081-.21.243-.21h.896c.119 0 .207.07.265.21l2.026 4.76c.11.25.222.38.337.38.115 0 .227-.13.337-.38l2.041-4.76c.057-.14.14-.21.25-.21h.895c.163 0 .244.07.244.21 0 .05-.014.1-.043.17l-2.27 5.1c-.234.52-.499.84-.795.96v4.17c0 .08-.026.15-.079.21a.266.266 0 0 1-.186.08h-.802a.264.264 0 0 1-.186-.08.307.307 0 0 1-.079-.21v-4.17ZM285.651 2391.14c0 .1-.047.18-.143.24-.095.05-.369.1-.82.15-.451.06-1.037.08-1.758.08-1.194 0-2.138-.38-2.833-1.15-.694-.77-1.042-1.89-1.042-3.37v-2.04c0-1.49.345-2.62 1.035-3.39.69-.76 1.637-1.15 2.84-1.15.477 0 1.018.04 1.622.12.604.07.933.13.988.16.055.03.083.08.083.15v.75c0 .1-.058.16-.172.16h-.043c-1.06-.09-1.881-.13-2.464-.13-1.704 0-2.557 1.11-2.557 3.33v2.04c0 1.1.219 1.92.656 2.48.437.56 1.07.84 1.901.84.368 0 .771-.01 1.21-.03l1.211-.08h.057c.153 0 .229.08.229.23v.61ZM295.547 2387.01c0 1.5-.344 2.64-1.031 3.43-.688.78-1.664 1.17-2.929 1.17s-2.244-.39-2.936-1.17c-.693-.79-1.039-1.93-1.039-3.43v-1.89c0-1.56.358-2.71 1.074-3.47.717-.76 1.683-1.14 2.901-1.14 1.265 0 2.241.4 2.929 1.18.687.79 1.031 1.93 1.031 3.43v1.89Zm-1.353 0v-1.89c0-2.27-.869-3.4-2.607-3.4-1.752 0-2.628 1.13-2.628 3.4v1.89c0 2.27.876 3.4 2.628 3.4 1.738 0 2.607-1.13 2.607-3.4ZM307.928 2391.22c0 .08-.028.15-.086.21a.266.266 0 0 1-.207.08h-.716a.267.267 0 0 1-.208-.08.296.296 0 0 1-.086-.21v-8.69c0-.04-.005-.05-.014-.05-.015 0-.027.01-.036.03l-1.368 2.83c-.501 1.04-.775 1.6-.82 1.67a.5.5 0 0 1-.201.19.747.747 0 0 1-.368.08h-.674a.718.718 0 0 1-.386-.09c-.096-.05-.187-.17-.273-.34l-1.324-2.74c-.516-1.07-.775-1.61-.778-1.62-.002 0-.004-.01-.007-.01h-.018c-.009 0-.014.01-.014.05v8.69c0 .08-.029.15-.086.21a.267.267 0 0 1-.208.08h-.716a.266.266 0 0 1-.207-.08.292.292 0 0 1-.086-.21v-10.18c0-.11.041-.22.125-.3a.427.427 0 0 1 .297-.13h.953c.234 0 .391.09.472.26l2.421 5.03c.048.11.105.16.172.16.067 0 .126-.05.179-.16l2.421-5.03c.076-.17.231-.26.465-.26h.953c.119 0 .22.05.304.13.084.08.125.19.125.3v10.18ZM318.562 2383.89c0 2.19-1.368 3.28-4.104 3.28-.348 0-.838-.02-1.468-.07v4.12c0 .08-.025.15-.075.21a.261.261 0 0 1-.19.08h-.788c-.076 0-.139-.02-.189-.08a.314.314 0 0 1-.076-.21V2381c0-.1.039-.2.115-.28.076-.08.44-.13 1.092-.16.652-.03 1.178-.05 1.579-.05 2.736 0 4.104 1.06 4.104 3.18v.2Zm-1.332 0v-.2c0-.72-.219-1.24-.655-1.56-.437-.32-1.143-.49-2.117-.49-.477 0-.967.02-1.468.06v4.3c.898.04 1.387.06 1.468.06.984 0 1.692-.17 2.124-.5.432-.33.648-.89.648-1.67ZM322.113 2387.92l-.939 3.38c-.019.08-.057.13-.114.16a.253.253 0 0 1-.15.05h-.867c-.167 0-.251-.08-.251-.23a.3.3 0 0 1 .015-.1l2.714-9.55c.21-.74.709-1.12 1.497-1.12.778 0 1.272.37 1.482 1.11l2.714 9.56c.01.02.015.05.015.1 0 .15-.084.23-.251.23h-.866a.222.222 0 0 1-.158-.06c-.043-.04-.11-.22-.201-.55l-.845-2.98h-3.795Zm3.516-1.16-1.024-3.72c-.21-.75-.32-1.14-.33-1.16a.462.462 0 0 0-.05-.1.328.328 0 0 0-.086-.08.231.231 0 0 0-.121-.03.318.318 0 0 0-.14.04.227.227 0 0 0-.097.09c-.024.04-.107.32-.25.84l-1.139 4.12h3.237ZM338.948 2391.09a.416.416 0 0 1-.422.42h-.91c-.234 0-.391-.08-.472-.23l-4.534-8.61c-.014-.03-.028-.04-.043-.04-.009 0-.014.01-.014.04v8.57a.26.26 0 0 1-.079.19.229.229 0 0 1-.186.08h-.759c-.177 0-.265-.06-.265-.17v-10.31c0-.12.04-.21.122-.29a.42.42 0 0 1 .3-.13h.81c.195 0 .329.02.401.07.071.04.138.11.2.23l4.534 8.61c.009 0 .014-.02.014-.05v-8.58c0-.07.025-.13.075-.19a.23.23 0 0 1 .183-.09h.78c.177 0 .265.1.265.28v10.2ZM344.812 2387.05c-.296-.11-.561-.43-.795-.96l-2.256-5.1a.418.418 0 0 1-.043-.17c0-.14.082-.21.244-.21h.895c.119 0 .208.07.265.21l2.027 4.76c.11.25.222.38.336.38.115 0 .227-.13.337-.38l2.041-4.76c.057-.14.141-.21.251-.21h.895c.162 0 .243.07.243.21 0 .05-.014.1-.042.17l-2.271 5.1c-.234.52-.499.84-.795.96v4.17a.31.31 0 0 1-.078.21.268.268 0 0 1-.187.08h-.802a.268.268 0 0 1-.186-.08.312.312 0 0 1-.079-.21v-4.17Z" style="fill:#e26b26;fill-rule:nonzero;stroke:#e26b26;stroke-width:.54px" transform="matrix(7.77152 0 0 7.7715 185.637 -15818.308)"/></g><g><path d="M1231.89 3027.05c0 .09-.03.15-.11.19-.08.04-.3.09-.67.13-.37.05-.85.07-1.44.07-.98 0-1.75-.32-2.32-.95-.57-.62-.85-1.54-.85-2.75v-1.67c0-1.22.28-2.15.85-2.77.56-.63 1.33-.94 2.32-.94.39 0 .83.03 1.33.09.49.06.76.11.8.13.05.03.07.07.07.12v.62c0 .08-.05.13-.14.13h-.04c-.86-.07-1.53-.11-2.01-.11-1.39 0-2.09.91-2.09 2.73v1.67c0 .89.18 1.57.53 2.03.36.45.88.68 1.56.68.3 0 .63-.01.99-.02l.99-.07h.05c.12 0 .18.07.18.19v.5Z" style="fill:#079a93;fill-rule:nonzero;stroke:#079a93;stroke-width:.13px" transform="matrix(29.85101 0 0 29.85102 -35953.104 -87833.7)"/><path d="M1237.2 3024.51c0 .92-.24 1.63-.7 2.15-.47.52-1.13.78-1.98.78-.85 0-1.5-.26-1.97-.78-.46-.51-.69-1.23-.69-2.15v-.91c0-.9.22-1.62.68-2.14.46-.53 1.12-.79 1.98-.79.85 0 1.51.26 1.98.78.46.52.7 1.23.7 2.15v.91Zm-1.06 0v-.91c0-1.34-.54-2-1.62-2-1.07 0-1.6.66-1.6 2v.91c0 1.34.53 2.01 1.6 2.01.53 0 .94-.17 1.21-.51.28-.35.41-.84.41-1.5ZM1245.9 3027.12c0 .06-.03.12-.07.17-.05.04-.11.07-.17.07h-.58c-.06 0-.12-.03-.17-.07a.284.284 0 0 1-.07-.17v-4.25c0-.86-.36-1.28-1.09-1.28-.37 0-.84.1-1.4.32.07.26.1.58.1.94v4.27c0 .06-.02.11-.06.16a.19.19 0 0 1-.15.08h-.64c-.14 0-.2-.08-.2-.24v-4.27c0-.45-.06-.77-.18-.97-.12-.2-.37-.29-.75-.29-.35 0-.84.15-1.46.46v5.07c0 .06-.02.11-.07.16-.04.05-.09.08-.14.08h-.64c-.14 0-.21-.08-.21-.24V3021c0-.07.02-.13.07-.17.04-.05.1-.07.16-.07h.6c.07 0 .12.02.16.07.05.04.07.1.07.17v.22c.6-.37 1.19-.56 1.75-.56.52 0 .92.16 1.2.49.7-.33 1.36-.49 1.99-.49 1.3 0 1.95.73 1.95 2.21v4.25ZM1252.01 3027.21c0 .06-.02.1-.06.14-.04.03-.3.05-.77.07-.47.01-1.02.02-1.64.02-.88 0-1.53-.18-1.94-.54-.41-.37-.61-.93-.61-1.69v-4.62c0-.78.21-1.35.63-1.7.42-.36 1.06-.53 1.92-.53.08 0 .49 0 1.22.01.74.01 1.13.04 1.17.08.05.04.08.09.08.15v.59c0 .1-.05.15-.14.15h-2.31c-.53 0-.91.07-1.14.2-.23.14-.34.49-.34 1.05v1.67h3.68c.07 0 .13.02.17.07.05.05.08.1.08.17v.45c0 .07-.03.12-.08.17-.04.05-.1.07-.17.07h-3.68v2.02c0 .48.09.8.28.98.19.18.59.26 1.2.26h2.31c.09 0 .14.05.14.15v.61ZM1257.87 3027.12c0 .06-.03.12-.07.17-.05.04-.11.07-.17.07h-.58c-.06 0-.12-.03-.17-.07a.284.284 0 0 1-.07-.17v-3.95c0-.57-.1-.97-.29-1.22-.19-.24-.53-.36-1.03-.36-.45 0-.99.15-1.62.46v5.07c0 .06-.02.11-.07.16s-.1.08-.16.08h-.6c-.05 0-.11-.03-.15-.07a.234.234 0 0 1-.07-.17V3021c0-.07.02-.13.06-.17.05-.05.1-.07.16-.07h.61c.06 0 .11.02.16.07.04.04.06.1.06.17v.22c.64-.37 1.28-.55 1.91-.55 1.39 0 2.09.83 2.09 2.5v3.95ZM1263.93 3024.13c0 .17-.07.26-.23.26h-4.02v.17c0 .68.14 1.17.4 1.49.26.31.68.47 1.27.47.23 0 .48-.01.74-.02s.51-.03.74-.05l.66-.07h.06c.12 0 .19.06.19.17v.41c0 .11-.03.18-.1.23-.06.04-.33.09-.8.16-.47.06-.97.09-1.49.09-.87 0-1.54-.24-2.01-.73-.48-.49-.72-1.2-.72-2.15v-1.08c0-.87.24-1.55.7-2.06.47-.5 1.12-.75 1.97-.75.84 0 1.5.25 1.95.74.46.5.69 1.19.69 2.07v.65Zm-1.07-.54v-.11c0-.65-.12-1.13-.37-1.43-.25-.3-.65-.45-1.2-.45-1.07 0-1.61.62-1.61 1.88v.11h3.18ZM1267.67 3021.38c0 .14-.08.21-.25.21-.55 0-1.1.16-1.66.5v5.03c0 .06-.02.11-.07.16-.04.05-.1.08-.16.08h-.59c-.06 0-.11-.03-.16-.07a.234.234 0 0 1-.07-.17V3021c0-.07.02-.13.07-.17.04-.05.09-.07.16-.07h.56c.07 0 .12.02.16.07.05.04.07.1.07.17v.25c.55-.39 1.11-.58 1.69-.58.17 0 .25.07.25.22v.49ZM1273.25 3021.33c0 .1-.02.16-.07.18-.04.03-.23.07-.58.13.27.29.41.7.41 1.24v.09c0 1.38-.89 2.06-2.67 2.06-.55 0-1.01-.08-1.39-.24-.2.09-.3.23-.3.4 0 .2.13.32.37.39 1.46.37 2.36.61 2.7.71.35.11.67.28.96.52.29.23.44.57.44.99v.09c0 1.25-.91 1.87-2.74 1.87-.9 0-1.59-.16-2.06-.49-.46-.33-.7-.8-.7-1.42v-.11c0-.61.25-1.12.76-1.53-.43-.16-.64-.48-.64-.96v-.01c0-.39.16-.68.49-.87-.36-.34-.55-.81-.55-1.4v-.09c0-.44.1-.82.3-1.14.2-.32.5-.57.89-.73.4-.17.89-.25 1.47-.25h2.63c.08 0 .14.02.19.08.06.05.09.11.09.18v.31Zm-1.29 1.64v-.09c0-.45-.13-.78-.4-.98-.26-.2-.67-.3-1.22-.3-.54 0-.94.1-1.21.3-.27.2-.41.53-.41.98v.09c0 .82.54 1.23 1.62 1.23.55 0 .96-.1 1.23-.28.26-.19.39-.51.39-.95Zm.1 4.92v-.09c0-.23-.11-.41-.31-.53-.2-.12-.5-.23-.88-.34l-1.63-.41c-.39.32-.59.72-.59 1.22v.11c0 .39.14.67.43.84.28.16.71.25 1.3.25.58 0 1-.07 1.27-.22.27-.14.41-.42.41-.83ZM1276.41 3026.42l1.46-5.49c.03-.11.1-.17.23-.17h.67c.13 0 .19.07.19.2 0 .03 0 .06-.01.09l-1.98 6.9c-.21.73-.47 1.21-.79 1.44-.31.23-.78.35-1.41.35-.22 0-.45-.02-.67-.06-.23-.03-.38-.06-.46-.09-.09-.04-.13-.09-.13-.16v-.44c0-.13.08-.19.23-.19h.04c.09 0 .26.01.53.03.27.03.45.04.53.04.34 0 .6-.07.79-.2.18-.13.36-.57.53-1.31h-.17c-.27 0-.47-.08-.59-.22-.13-.15-.23-.35-.3-.61l-1.6-5.48c-.01-.02-.01-.05-.01-.09 0-.13.07-.2.22-.2h.65c.1 0 .17.06.21.19l1.42 5.21c.04.17.12.26.22.26h.2ZM1284.89 3027.05c0 .09-.04.15-.12.19-.08.04-.3.09-.67.13-.37.05-.85.07-1.44.07-.98 0-1.75-.32-2.32-.95-.56-.62-.85-1.54-.85-2.75v-1.67c0-1.22.28-2.15.85-2.77.56-.63 1.34-.94 2.32-.94.39 0 .84.03 1.33.09.49.06.76.11.81.13.04.03.07.07.07.12v.62c0 .08-.05.13-.15.13h-.03c-.87-.07-1.54-.11-2.02-.11-1.39 0-2.09.91-2.09 2.73v1.67c0 .89.18 1.57.54 2.03.36.45.87.68 1.55.68.3 0 .63-.01.99-.02l.99-.07h.05c.13 0 .19.07.19.19v.5Z" style="fill:#079a93;fill-rule:nonzero;stroke:#079a93;stroke-width:.13px" transform="matrix(29.85101 0 0 29.85102 -35953.104 -87833.7)"/><path d="M1290.19 3024.51c0 .92-.23 1.63-.7 2.15s-1.13.78-1.97.78c-.85 0-1.51-.26-1.97-.78-.47-.51-.7-1.23-.7-2.15v-.91c0-.9.23-1.62.69-2.14.45-.53 1.11-.79 1.98-.79.84 0 1.5.26 1.97.78s.7 1.23.7 2.15v.91Zm-1.05 0v-.91c0-1.34-.54-2-1.62-2s-1.61.66-1.61 2v.91c0 1.34.53 2.01 1.61 2.01.53 0 .93-.17 1.21-.51.27-.35.41-.84.41-1.5ZM1298.89 3027.12c0 .06-.02.12-.07.17a.26.26 0 0 1-.17.07h-.57c-.07 0-.13-.03-.17-.07a.234.234 0 0 1-.07-.17v-4.25c0-.86-.37-1.28-1.1-1.28-.37 0-.84.1-1.4.32.07.26.1.58.1.94v4.27c0 .06-.02.11-.06.16a.19.19 0 0 1-.15.08h-.63c-.14 0-.21-.08-.21-.24v-4.27c0-.45-.06-.77-.18-.97-.12-.2-.37-.29-.75-.29-.35 0-.84.15-1.46.46v5.07c0 .06-.02.11-.06.16a.19.19 0 0 1-.15.08h-.64c-.14 0-.21-.08-.21-.24V3021c0-.07.03-.13.07-.17.05-.05.1-.07.16-.07h.61c.06 0 .11.02.15.07.05.04.07.1.07.17v.22c.61-.37 1.19-.56 1.75-.56.53 0 .93.16 1.2.49.7-.33 1.37-.49 1.99-.49 1.3 0 1.95.73 1.95 2.21v4.25ZM1304.94 3024.5c0 .96-.22 1.69-.67 2.19-.44.5-1.09.75-1.95.75-.43 0-.9-.05-1.41-.13v2.17c0 .06-.02.11-.06.16-.04.04-.1.07-.16.07h-.61c-.15 0-.22-.08-.22-.23v-8.26c0-.1.03-.17.09-.21.07-.05.35-.12.87-.2.51-.09 1.01-.14 1.5-.14.85 0 1.5.26 1.95.77.44.51.67 1.24.67 2.2v.86Zm-1.06 0v-.86c0-.72-.13-1.25-.38-1.58-.26-.33-.65-.5-1.18-.5-.47 0-.94.04-1.41.12v4.75c.47.08.94.12 1.41.12.54 0 .93-.16 1.18-.49.25-.32.38-.84.38-1.56ZM1310.29 3027.12c0 .06-.02.12-.07.17-.05.04-.11.07-.17.07h-.56c-.06 0-.11-.03-.16-.07a.234.234 0 0 1-.07-.17v-.27c-.67.39-1.28.59-1.85.59-.63 0-1.11-.16-1.45-.49-.34-.33-.51-.81-.51-1.45v-.15c0-.67.22-1.16.67-1.47.44-.32 1.18-.47 2.23-.47h.88v-.48c0-.5-.09-.85-.28-1.05-.19-.2-.53-.31-1-.31-.35 0-.68.01-.98.03l-.86.07h-.05c-.15 0-.22-.07-.22-.2v-.41c0-.09.03-.15.09-.18.06-.04.29-.08.69-.13.39-.05.83-.08 1.33-.08 1.56 0 2.34.75 2.34 2.26v4.19Zm-1.06-1.02v-1.94h-.88c-.67 0-1.15.08-1.42.24-.28.16-.42.47-.42.94v.15c0 .38.08.65.25.83.16.17.45.26.85.26.5 0 1.04-.16 1.62-.48ZM1316.31 3027.12c0 .06-.02.12-.07.17-.05.04-.1.07-.16.07h-.58c-.07 0-.13-.03-.17-.07a.234.234 0 0 1-.07-.17v-3.95c0-.57-.1-.97-.29-1.22-.2-.24-.54-.36-1.03-.36-.46 0-1 .15-1.62.46v5.07c0 .06-.03.11-.07.16-.05.05-.11.08-.17.08h-.59c-.06 0-.11-.03-.16-.07a.234.234 0 0 1-.07-.17V3021c0-.07.02-.13.07-.17.04-.05.1-.07.16-.07h.6c.06 0 .12.02.16.07.04.04.07.1.07.17v.22c.63-.37 1.27-.55 1.91-.55 1.39 0 2.08.83 2.08 2.5v3.95ZM1319.38 3026.42l1.46-5.49c.03-.11.1-.17.23-.17h.67c.13 0 .19.07.19.2 0 .03 0 .06-.01.09l-1.98 6.9c-.21.73-.47 1.21-.79 1.44-.31.23-.78.35-1.41.35-.22 0-.45-.02-.67-.06-.23-.03-.38-.06-.46-.09-.09-.04-.13-.09-.13-.16v-.44c0-.13.08-.19.23-.19h.04c.09 0 .26.01.53.03.27.03.45.04.53.04.34 0 .6-.07.79-.2.18-.13.36-.57.53-1.31h-.17c-.27 0-.47-.08-.59-.22-.13-.15-.23-.35-.3-.61l-1.6-5.48c-.01-.02-.01-.05-.01-.09 0-.13.07-.2.22-.2h.65c.1 0 .17.06.21.19l1.42 5.21c.04.17.12.26.22.26h.2Z" style="fill:#079a93;fill-rule:nonzero;stroke:#079a93;stroke-width:.13px" transform="matrix(29.85101 0 0 29.85102 -35953.104 -87833.7)"/></g></svg>